<svg width="1098" height="1080" viewBox="0 0 1098 1080" fill="none" xmlns="http://www.w3.org/2000/svg">
<path opacity="0.5" d="M-110.872 -2.28632H1097.14V737C1097.14 930.3 940.44 1087 747.14 1087H-110.872V-2.28632Z" fill="url(#paint0_linear_235_536)"/>
<mask id="mask0_235_536" style="mask-type:alpha" maskUnits="userSpaceOnUse" x="524" y="-6" width="574" height="705">
<rect x="524.923" y="-6" width="572.1" height="704.002" fill="#D9D9D9"/>
</mask>
<g mask="url(#mask0_235_536)">
<path d="M670.149 199.28H1007.48C1018.92 199.321 1030.23 201.411 1040.78 205.432C1051.33 209.453 1060.9 215.325 1068.96 222.715C1077.01 230.104 1083.39 238.865 1087.72 248.497C1092.06 258.13 1094.27 268.445 1094.22 278.854V586.24C1094.25 596.666 1092.02 606.996 1087.66 616.637C1083.3 626.277 1076.89 635.04 1068.8 642.422C1060.71 649.804 1051.1 655.661 1040.52 659.658C1029.94 663.654 1018.6 665.711 1007.15 665.711H1003.98C992.521 665.725 981.172 663.677 970.586 659.685C960 655.694 950.385 649.837 942.293 642.452C934.202 635.067 927.793 626.299 923.435 616.653C919.078 607.006 916.858 596.67 916.903 586.24V359.767H670.149C647.406 359.024 625.866 350.277 610.064 335.367C594.263 320.458 585.433 300.549 585.433 279.832C585.433 259.116 594.263 239.207 610.064 224.297C625.866 209.388 647.406 200.641 670.149 199.898V199.28Z" fill="#0088CE" fill-opacity="0.1"/>
<path d="M615.546 -190.054L1521.75 639.633C1539.99 656.331 1564.72 665.711 1590.51 665.711C1616.31 665.711 1641.04 656.331 1659.28 639.633C1677.55 622.844 1687.81 600.108 1687.81 576.407C1687.81 552.706 1677.55 529.971 1659.28 513.182L754.314 -318.867C736.131 -335.22 711.771 -344.535 686.288 -344.879C660.804 -345.223 636.154 -336.571 617.453 -320.716C607.805 -312.661 600.01 -302.924 594.522 -292.075C589.035 -281.227 585.967 -269.485 585.497 -257.537C585.027 -245.589 587.164 -233.676 591.785 -222.494C596.405 -211.312 603.415 -201.087 612.405 -192.416L615.546 -190.054Z" fill="#BDDA57" fill-opacity="0.2"/>
<path d="M1010.17 199.28H1012.58C1034.5 200.005 1055.25 208.513 1070.48 223.012C1085.7 237.512 1094.21 256.872 1094.21 277.019C1094.21 297.165 1085.7 316.525 1070.48 331.025C1055.25 345.525 1034.5 354.032 1012.58 354.757H925.711C924.614 354.757 924.614 354.757 924.614 353.85V277.17C924.788 256.449 933.886 236.633 949.917 222.057C965.949 207.48 987.612 199.327 1010.17 199.381V199.28Z" fill="#00A8E4" fill-opacity="0.15"/>
</g>
<g opacity="0.25">
<path d="M247.555 1140.23H-89.7342C-101.212 1140.25 -112.582 1138.22 -123.191 1134.23C-133.799 1130.24 -143.436 1124.39 -151.547 1117C-159.658 1109.61 -166.082 1100.84 -170.45 1091.18C-174.818 1081.52 -177.044 1071.18 -176.999 1060.74V753.284C-177.059 732.275 -167.951 712.103 -151.673 697.199C-135.396 682.295 -113.281 673.877 -90.187 673.795H-86.4519C-74.9836 673.782 -63.6255 675.83 -53.0301 679.822C-42.4348 683.815 -32.8113 689.673 -24.7126 697.059C-16.6138 704.446 -10.1996 713.216 -5.83842 722.865C-1.47728 732.514 0.744781 742.852 0.700027 753.284V981.351H247.555C270.17 982.092 291.587 990.786 307.298 1005.6C323.01 1020.42 331.789 1040.2 331.789 1060.79C331.789 1081.38 323.01 1101.16 307.298 1115.98C291.587 1130.79 270.17 1139.49 247.555 1140.23Z" fill="#00A8E4" fill-opacity="0.3"/>
</g>
<defs>
<linearGradient id="paint0_linear_235_536" x1="-660.968" y1="-488.935" x2="832.167" y2="1127.18" gradientUnits="userSpaceOnUse">
<stop stop-color="#0088CE"/>
<stop offset="1" stop-color="#008ACF" stop-opacity="0.17"/>
</linearGradient>
</defs>
</svg>
